<?xml version="1.0" encoding="utf-8"?>
<svg viewBox="100 100 100 100" width="100" height="100" xmlns="http://www.w3.org/2000/svg" xmlns:bx="https://boxy-svg.com">
  <title>re-edit</title>
  <path d="M 146.952 110.896 Q 150.014 109.106 153.076 110.896 L 180.973 127.201 Q 184.035 128.991 184.035 132.57 L 184.035 165.182 Q 184.035 168.761 180.973 170.551 L 153.076 186.856 Q 150.014 188.646 146.952 186.856 L 119.055 170.551 Q 115.993 168.761 115.993 165.182 L 115.993 132.57 Q 115.993 128.991 119.055 127.201 Z" style="stroke-width: 15px; stroke: rgb(0, 0, 0); paint-order: fill; fill: rgb(255, 203, 10);" bx:shape="n-gon 150.014 148.876 39.284 39.77 6 0.09 1@024b8c8d" bx:origin="0.5 0.514457"/>
  <rect x="176.738" y="120.696" width="31.252" height="28.008" style="" transform="matrix(0.863097, -0.505039, 0, 1.158619, -2.519844, 98.312531)"/>
  <text style="fill: rgb(51, 51, 51); font-family: Arial, sans-serif; font-size: 19px; white-space: pre;" transform="matrix(1, 0.590846, 0, 1, -1.397837, -77.090492)" x="125.734" y="163.317">Re</text>
  <text style="fill: rgb(255, 255, 255); font-family: Arial, sans-serif; font-size: 16px; white-space: pre;" x="150.022" y="163.648" transform="matrix(0.90314, -0.546564, 0, 1, 17.509117, 93.911423)">Edit</text>
  <path d="M 153.896 129.792 C 154.433 130.324 154.433 131.187 153.896 131.722 L 153.167 132.453 L 150.748 130.03 L 151.478 129.301 C 152.01 128.768 152.873 128.768 153.409 129.301 L 153.896 129.792 Z M 146.385 134.363 L 149.973 130.805 L 152.396 133.224 L 148.807 136.812 C 148.667 136.952 148.49 137.051 148.298 137.099 L 146.248 137.614 C 146.061 137.658 145.866 137.604 145.729 137.471 C 145.593 137.334 145.539 137.137 145.586 136.922 L 146.098 134.899 C 146.146 134.707 146.245 134.534 146.385 134.363 Z M 158.669 133.268 C 158.669 138.092 154.76 142.001 149.936 142.001 C 145.112 142.001 141.203 138.092 141.203 133.268 C 141.203 128.444 145.112 124.535 149.936 124.535 C 154.76 124.535 158.669 128.444 158.669 133.268 Z M 149.936 126.173 C 146.016 126.173 142.841 129.348 142.841 133.268 C 142.841 137.188 146.016 140.364 149.936 140.364 C 153.856 140.364 157.032 137.188 157.032 133.268 C 157.032 129.348 153.856 126.173 149.936 126.173 Z" style="fill: rgb(51, 51, 51);"/>
</svg>