<?xml version="1.0" encoding="utf-8"?>
<svg viewBox="100 100 90 100" width="90" height="100" xmlns="http://www.w3.org/2000/svg" xmlns:bx="https://boxy-svg.com">
  <defs>
    <bx:grid x="0" y="0" width="5" height="5"/>
  </defs>
  <title>re-edit</title>
  <path d="M 141.85 110.92 Q 145 109.079 148.15 110.92 L 176.85 127.698 Q 180 129.54 180 133.222 L 180 166.778 Q 180 170.461 176.85 172.302 L 148.15 189.08 Q 145 190.921 141.85 189.08 L 113.15 172.302 Q 110 170.461 110 166.778 L 110 133.222 Q 110 129.54 113.15 127.698 Z" style="stroke-width: 15px; paint-order: fill; fill: rgb(255, 203, 10); stroke: rgb(0, 0, 0);" bx:shape="n-gon 145 150 40.414 40.921 6 0.09 1@bc20ed69" bx:origin="0.5 0.514457"/>
  <path d="M 154.069 142.039 C 155.299 143.258 155.299 145.233 154.069 146.459 L 152.4 148.134 L 146.86 142.585 L 148.532 140.915 C 149.75 139.694 151.727 139.694 152.954 140.915 L 154.069 142.039 Z M 136.867 152.507 L 145.085 144.36 L 150.634 149.899 L 142.415 158.116 C 142.093 158.437 141.689 158.663 141.248 158.774 L 136.554 159.953 C 136.126 160.053 135.679 159.93 135.366 159.624 C 135.054 159.312 134.93 158.861 135.038 158.368 L 136.211 153.734 C 136.32 153.295 136.547 152.9 136.867 152.507 Z M 165 150 C 165 161.048 156.048 170 145.001 170 C 133.952 170 125 161.048 125 150 C 125 138.951 133.952 130 145.001 130 C 156.048 130 165 138.951 165 150 Z M 145.001 133.752 C 136.022 133.752 128.751 141.023 128.751 150 C 128.751 158.977 136.022 166.251 145.001 166.251 C 153.978 166.251 161.251 158.977 161.251 150 C 161.251 141.023 153.978 133.752 145.001 133.752 Z" style="fill: rgb(51, 51, 51);"/>
</svg>